<svg version="1.0" xmlns="http://www.w3.org/2000/svg" width="222" height="179" viewBox="0 0 222 179" stroke="#fff" fill="none" stroke-width="10" stroke-linecap="round"><defs><filter id="a"><feDropShadow dx="2" dy="2" stdDeviation="3"/></filter></defs><g transform="rotate(-6 90.406 100.406)" filter="url(#a)"><path d="M47 24c33-8 48.7-9 49.55 1.5.37 6.58-11.2 9-10.6 22.6.6 13.65 18.83 16.56 26.4 16"/><path d="M176 24c-33-8-48.7-9-49.55 1.5-.37 6.58 11.2 9 10.6 22.6-.6 13.65-18.83 16.56-26.4 16M47 155c33 8 48.7 9 49.55-1.5.37-6.58-11.2-9-10.6-22.6.6-13.65 18.83-16.56 26.4-16"/><path d="M176 155c-33 8-48.7 9-49.55-1.5-.37-6.58 11.2-9 10.6-22.6-.6-13.65-18.83-16.56-26.4-16"/><g><path d="M46 25c8 33 9 48.7-1.5 49.55-6.58.37-9-11.2-22.6-10.6-13.65.6-16.56 18.83-16 26.4"/><path d="M46 154c8-33 9-48.7-1.5-49.55-6.58-.37-9 11.2-22.6 10.6-13.65-.6-16.56-18.83-16-26.4"/></g><g><path d="M176 25c-8 33-9 48.7 1.5 49.55 6.58.37 9-11.2 22.6-10.6 13.65.6 16.56 18.83 16 26.4"/><path d="M176 154c-8-33-9-48.7 1.5-49.55 6.58-.37 9 11.2 22.6 10.6 13.65-.6 16.56-18.83 16-26.4"/></g></g></svg>